<svg width="18" height="19" viewBox="0 0 18 19" fill="none" xmlns="http://www.w3.org/2000/svg">
<path fill-rule="evenodd" clip-rule="evenodd" d="M12.8496 16.0556L10.4884 16.6893V15.8559L10.3002 15.6649H8.94852V16.6372V17.3231H10.3943L12.1738 16.5417L12.8496 16.0556Z" fill="#CDBDB2"/>
<path fill-rule="evenodd" clip-rule="evenodd" d="M5.15024 16.0556L7.46009 16.6893V15.8559L7.65686 15.6649H9V16.6372V17.3231H7.5542L5.77475 16.5417L5.15024 16.0556Z" fill="#CDBDB2"/>
<path fill-rule="evenodd" clip-rule="evenodd" d="M10.3004 14.2495L10.4886 15.8556L10.2491 15.6646H7.75104L7.46017 15.8556L7.65693 14.2495L8.04191 14.0065L9.96679 14.0499L10.3004 14.2495Z" fill="#393939"/>
<path fill-rule="evenodd" clip-rule="evenodd" d="M11.6011 3.35425L10.4461 6.08891L9.91573 14.0498H8.04218L7.46044 6.08891L6.39962 3.35425H11.6011Z" fill="#F89C35"/>
<path fill-rule="evenodd" clip-rule="evenodd" d="M16.6483 9.36205L18 13.3208L14.6293 13.1211H12.4649V11.4109L12.559 7.90356L13.0466 8.28555L16.6483 9.36205Z" fill="#F89D35"/>
<path fill-rule="evenodd" clip-rule="evenodd" d="M14.0981 9.80481L10.1543 9.90031L10.5906 11.9491L12.4641 11.463L14.0981 9.80481Z" fill="#D87C30"/>
<path fill-rule="evenodd" clip-rule="evenodd" d="M14.0981 9.84802L12.4641 11.4107V12.9734L14.0981 9.84802Z" fill="#EA8D3A"/>
<path fill-rule="evenodd" clip-rule="evenodd" d="M12.4646 11.4626L10.5397 11.9488L9.9152 14.0497L10.3515 14.2928L12.4646 13.0253V11.4626Z" fill="#F89D35"/>
<path fill-rule="evenodd" clip-rule="evenodd" d="M12.4646 13.0256L12.8496 16.0555L10.3002 14.2497L12.4646 13.0256Z" fill="#EB8F35"/>
<path fill-rule="evenodd" clip-rule="evenodd" d="M10.1562 9.90027L9.91688 14.05L10.6348 11.9317L10.1562 9.90027Z" fill="#EA8E3A"/>
<path fill-rule="evenodd" clip-rule="evenodd" d="M14.681 13.0777L12.4653 13.0256L12.8503 16.0555L14.681 13.0777Z" fill="#D87C30"/>
<path fill-rule="evenodd" clip-rule="evenodd" d="M16.9392 17.375L12.8499 16.0554L14.6806 13.0776L18 13.3207L16.9392 17.375Z" fill="#EB8F35"/>
<path fill-rule="evenodd" clip-rule="evenodd" d="M10.4451 6.08911L12.5155 7.85145L14.0981 9.80478L10.1543 9.95237L10.4451 6.08911Z" fill="#E8821E"/>
<path fill-rule="evenodd" clip-rule="evenodd" d="M12.8496 16.0554L10.3002 14.2496L10.4884 15.8123V16.6891L12.2251 16.3506L12.8496 16.0554Z" fill="#DFCEC3"/>
<path fill-rule="evenodd" clip-rule="evenodd" d="M5.15036 16.0554L7.65698 14.2496L7.46022 15.8123V16.6891L5.7321 16.3506L5.15036 16.0554Z" fill="#DFCEC3"/>
<path fill-rule="evenodd" clip-rule="evenodd" d="M11.2164 10.777L10.686 11.9056L12.5596 11.4107L11.2164 10.777Z" fill="#393939"/>
<path fill-rule="evenodd" clip-rule="evenodd" d="M16.9917 1.0625L10.4471 6.08907L11.5507 3.35441L16.9917 1.0625Z" fill="#E88F35"/>
<path fill-rule="evenodd" clip-rule="evenodd" d="M16.9906 1.0625L17.8546 3.74507L17.3755 6.67941L17.7092 6.87041L17.2301 7.31316L17.6151 7.65174L17.0847 8.1379L17.4183 8.43307L16.6484 9.40539L13.0381 8.28548C11.2758 6.85304 10.4032 6.1238 10.4374 6.08907C10.4716 6.05435 12.6617 4.37882 16.9906 1.0625Z" fill="#8E5A30"/>
<path fill-rule="evenodd" clip-rule="evenodd" d="M1.35169 9.36205L0 13.3208L3.37068 13.1211H5.5351V11.4109L5.441 7.90356L4.96192 8.28555L1.35169 9.36205Z" fill="#F89D35"/>
<path fill-rule="evenodd" clip-rule="evenodd" d="M3.90186 9.80481L7.84572 9.90031L7.41797 11.9491L5.53587 11.463L3.90186 9.80481Z" fill="#D87C30"/>
<path fill-rule="evenodd" clip-rule="evenodd" d="M3.90186 9.84802L5.53587 11.4107V12.9734L3.90186 9.84802Z" fill="#EA8D3A"/>
<path fill-rule="evenodd" clip-rule="evenodd" d="M5.5354 11.4626L7.46028 11.9488L8.0848 14.0497L7.65705 14.2928L5.5354 13.0253V11.4626Z" fill="#F89D35"/>
<path fill-rule="evenodd" clip-rule="evenodd" d="M5.53537 13.0256L5.15039 16.0555L7.65701 14.2931L5.53537 13.0256Z" fill="#EB8F35"/>
<path fill-rule="evenodd" clip-rule="evenodd" d="M7.84432 9.90027L8.08361 14.05L7.36572 11.9317L7.84432 9.90027Z" fill="#EA8E3A"/>
<path fill-rule="evenodd" clip-rule="evenodd" d="M3.32007 13.0777L5.53582 13.0256L5.15084 16.0555L3.32007 13.0777Z" fill="#D87C30"/>
<path fill-rule="evenodd" clip-rule="evenodd" d="M1.06082 17.375L5.15013 16.0554L3.31935 13.0776L0 13.3207L1.06082 17.375Z" fill="#EB8F35"/>
<path fill-rule="evenodd" clip-rule="evenodd" d="M7.55485 6.08911L5.48454 7.85145L3.90186 9.80478L7.84572 9.95237L7.55485 6.08911Z" fill="#E8821E"/>
<path fill-rule="evenodd" clip-rule="evenodd" d="M6.78406 10.777L7.31447 11.9056L5.44092 11.4107L6.78406 10.777Z" fill="#393939"/>
<path fill-rule="evenodd" clip-rule="evenodd" d="M1.01001 1.0625L7.55461 6.08907L6.45101 3.35441L1.01001 1.0625Z" fill="#E88F35"/>
<path fill-rule="evenodd" clip-rule="evenodd" d="M1.00944 1.0625L0.145386 3.74507L0.624467 6.67941L0.290821 6.87041L0.769903 7.31316L0.384927 7.65174L0.915338 8.1379L0.581692 8.43307L1.35164 9.40539L4.96187 8.28548C6.7242 6.85304 7.59682 6.1238 7.5626 6.08907C7.52838 6.05435 5.34684 4.37882 1.00944 1.0625Z" fill="#8E5A30"/>
</svg>
